<?xml version="1.0" encoding="utf-8"?>
<!-- Generator: Adobe Illustrator 16.0.0, SVG Export Plug-In . SVG Version: 6.00 Build 0)  -->
<!DOCTYPE svg PUBLIC "-//W3C//DTD SVG 1.1//EN" "http://www.w3.org/Graphics/SVG/1.1/DTD/svg11.dtd">
<svg version="1.1" id="Layer_1" xmlns="http://www.w3.org/2000/svg" xmlns:xlink="http://www.w3.org/1999/xlink" x="0px" y="0px"
	 width="1024px" height="1024px" viewBox="0 0 1024 1024" enable-background="new 0 0 1024 1024" xml:space="preserve">
<g>
	<g transform="translate(0.000000,1024.000000) scale(0.100000,-0.100000)">
		<path d="M6230.995,6507.832c-215-10-457.988-88.994-594.003-195c-81.992-63.994-135.996-112.998-135.996-123.994
			c0-5,27.012-32.002,60-60c52.012-42.002,125.996-123.008,173.008-188.008c11.992-16.992,17.988-12.998,87.988,56.006
			c127.011,125,270,180,469.003,180c158.008-1.006,242.012-25,390-112.002c47.012-27.002,95-50,107.012-50
			c30.996,0,71.992,40,142.988,140l60.996,85l-42.988,37.998c-100,89.004-260.996,171.006-397.012,202.998
			C6479.003,6497.832,6316.991,6510.83,6230.995,6507.832z"/>
		<path d="M1471.001,5444.833V4404.824h195h195v425v425.004h390h390v155.005v155h-390h-390v305v305h460h460v155v155h-655h-655
			V5444.833z"/>
		<path d="M2801.001,5444.833V4404.824h610h610v130.996c0,116.016-2.002,134.004-20.996,160l-20,29.004h-395H3191v880.009v880h-195
			h-195V5444.833z"/>
		<path d="M7000.995,5444.833V4404.824h195h195v462.012v461l100.996-7.012c55-2.988,113.008-12.988,128.008-20.996
			c38.008-19.004,46.992-30,380.996-467.993c245.996-322.012,302.012-390,335.996-407.012c38.008-19.004,57.012-20,237.012-17.988
			l195,2.988l-359.004,485c-198.008,267.016-379.004,506.005-403.008,532.011c-23.984,25.996-60,55-78.984,63.994l-35,17.002
			l41.992,31.006c21.992,17.998,206.992,235.996,410,485.996l369.004,455l-193.008,2.998c-184.004,2.002-195.996,1.006-239.004-20
			c-40-20-87.988-77.002-356.992-417.998c-349.004-442.002-335-429.004-460.996-430h-73.008v435v435h-195h-195V5444.833z"/>
		<path d="M6709.999,4863.828c-178.008-123.008-224.004-140-401.992-146.992c-79.004-3.008-152.012,0-190,7.988
			c-74.004,14.004-187.012,65-241.015,109.004c-20.996,16.992-40,30.996-40.996,30.996c-1.992,0-20-30-40-66.992
			c-31.992-58.008-56.992-93.008-150-210l-20-25l20-15c48.008-35.996,227.012-114.004,305-134.004
			c120.996-30,352.012-36.992,479.004-15c200,35,349.004,108.008,479.004,234.004l75,71.992l-68.008,73.008
			C6789.999,4910.82,6781.991,4913.828,6709.999,4863.828z"/>
		<path d="M1931.001,4071.836c0-175,1.001-185,25-233.008c28.999-58.008,72.998-90,137.998-103.008
			c90-15.996,182.002,16.016,224.004,78.008c35.996,54.004,42.998,95.996,42.998,274.004v166.992h-50h-50v-175
			c0-195-7.002-221.992-60-250c-58.999-30-133.999-10-161.001,44.004c-8.999,18.008-15,84.004-16.997,204.004l-4.004,176.992H1975
			h-43.999V4071.836z"/>
		<path d="M3171,3994.824v-260h45h45l2.002,175.996l2.998,176.016l137.998-176.016c131.006-167.988,139.004-175.996,172.002-175.996
			h35v260v260h-40h-40l-2.002-180L3526,3895.82l-140,179.004c-137.002,175.996-140.996,180-177.002,180H3171V3994.824z"/>
		<path d="M4451,3994.824v-260h50h50v260v260h-50h-50V3994.824z"/>
		<path d="M5340.996,4214.824v-40h80h80v-220v-220h45h45v220v220h80h80v40v40h-205h-205V4214.824z"/>
		<path d="M6530.995,3994.824v-260h165h165v40v40h-115h-115v70v70h90h90v40v40h-90h-90v70v70h115h115v40v40h-165h-165V3994.824z"/>
		<path d="M7660.995,3995.82v-260.996h125c153.008,0,212.012,18.008,273.008,84.004c45.996,49.004,61.992,95.996,61.992,175.996
			c0,78.008-15.996,125-56.992,170.996c-65,72.012-98.008,83.008-260,87.012l-143.008,4.004V3995.82z M7951.991,4151.836
			c93.008-62.012,97.012-245,6.016-311.016c-22.012-15.996-47.012-21.992-113.008-25l-84.004-2.988v180.996v180.996h79.004
			C7904.003,4174.824,7924.003,4170.82,7951.991,4151.836z"/>
	</g>
	<circle fill="#448AFF" cx="487.1" cy="491.316" r="107"/>
	<g>
		<g>
			<path fill-rule="evenodd" clip-rule="evenodd" fill="#FEB50B" d="M577.1,501.451c-0.781,0.549-1.564,1.098-2.627,1.844
				c-7.338-0.059-13.443,3.641-19.088,8.379c-2.354,1.975-4.67,3.995-7.002,5.995s-4.486,4.275-7.041,5.932
				c-3.539,2.291-7.188,4.754-11.826,3.754c-1.543-0.332-7.092-3.318-8.582-4.576c-4.439-3.752-8.82-7.576-13.31-11.266
				c-2.572-2.113-5.069-4.58-8.041-5.877c-3.797-1.656-7.654-3.764-11.977-3.129c-1.484-2.047-1.484-2.047-1.479-5.582
				c0.471-0.471,0.941-0.941,1.316-1.316c7.807-1.352,13.871,2.533,19.738,6.537c3.964,2.707,7.458,6.092,11.228,9.094
				c3.584,2.856,7.252,5.606,10.58,8.17c2.174,0,3.826,0,5.994,0c4.652-4.123,9.453-8.723,14.623-12.862
				c4.979-3.986,10.111-7.9,16.479-9.557c1.223-0.316,2.52-0.328,3.77-0.551c1.041-0.186,2.064-0.475,3.535-0.82
				c0.949,0.469,2.33,1.15,3.709,1.832C577.1,498.783,577.1,500.117,577.1,501.451z"/>
		</g>
		<g>
			<g>
				<path fill-rule="evenodd" clip-rule="evenodd" fill="#FEB50B" d="M538.252,436.667c-1.033,0.725-2.066,1.451-3.471,2.437
					c-9.697-0.076-17.766,4.811-25.227,11.074c-3.108,2.609-6.17,5.278-9.252,7.921c-3.083,2.642-5.929,5.65-9.306,7.837
					c-4.676,3.028-9.498,6.284-15.629,4.962c-2.038-0.439-9.371-4.385-11.34-6.049c-5.867-4.957-11.656-10.012-17.59-14.888
					c-3.399-2.792-6.699-6.053-10.626-7.766c-5.018-2.188-10.115-4.975-15.827-4.136c-1.961-2.705-1.961-2.705-1.954-7.376
					c0.622-0.622,1.244-1.244,1.74-1.74c10.317-1.785,18.331,3.349,26.084,8.64c5.239,3.576,9.857,8.05,14.839,12.018
					c4.736,3.772,9.584,7.408,13.982,10.795c2.873,0,5.056,0,7.919,0c6.148-5.449,12.494-11.526,19.326-16.997
					c6.58-5.267,13.363-10.44,21.777-12.628c1.615-0.419,3.33-0.435,4.982-0.729c1.375-0.245,2.727-0.626,4.67-1.084
					c1.256,0.619,3.08,1.52,4.902,2.421C538.252,433.143,538.252,434.905,538.252,436.667z"/>
			</g>
		</g>
		<g>
			<g>
				<path fill-rule="evenodd" clip-rule="evenodd" fill="#FEB50B" d="M478.141,531.518c-0.503,0.354-1.006,0.707-1.69,1.186
					c-4.72-0.037-8.646,2.342-12.278,5.391c-1.513,1.27-3.003,2.568-4.503,3.855c-1.5,1.285-2.886,2.75-4.529,3.814
					c-2.276,1.473-4.623,3.059-7.606,2.416c-0.992-0.215-4.561-2.135-5.52-2.945c-2.855-2.412-5.673-4.873-8.561-7.246
					c-1.655-1.357-3.261-2.945-5.172-3.779c-2.442-1.064-4.923-2.422-7.703-2.014c-0.955-1.316-0.955-1.316-0.951-3.59
					c0.303-0.303,0.605-0.605,0.847-0.846c5.021-0.869,8.922,1.629,12.696,4.205c2.55,1.74,4.798,3.918,7.222,5.85
					c2.305,1.834,4.665,3.604,6.805,5.254c1.398,0,2.461,0,3.854,0c2.993-2.652,6.081-5.611,9.406-8.273
					c3.203-2.562,6.504-5.082,10.599-6.146c0.786-0.203,1.621-0.211,2.425-0.354c0.669-0.119,1.327-0.305,2.273-0.529
					c0.611,0.303,1.499,0.74,2.386,1.18C478.141,529.803,478.141,530.66,478.141,531.518z"/>
			</g>
		</g>
	</g>
</g>
</svg>
